<svg width="30" height="31" viewBox="0 0 30 31" fill="none" xmlns="http://www.w3.org/2000/svg">
<path d="M16.25 14.3496C16.9917 14.3496 17.7167 14.1297 18.3334 13.7176C18.9501 13.3056 19.4307 12.7199 19.7145 12.0347C19.9984 11.3495 20.0726 10.5955 19.9279 9.86802C19.7833 9.14059 19.4261 8.47241 18.9017 7.94796C18.3772 7.42351 17.709 7.06636 16.9816 6.92167C16.2542 6.77697 15.5002 6.85123 14.8149 7.13506C14.1297 7.41889 13.544 7.89954 13.132 8.51622C12.7199 9.13291 12.5 9.85793 12.5 10.5996C12.5 11.5942 12.8951 12.548 13.5983 13.2513C14.3016 13.9545 15.2554 14.3496 16.25 14.3496ZM16.25 9.34961C16.4972 9.34961 16.7389 9.42292 16.9445 9.56027C17.15 9.69763 17.3102 9.89285 17.4048 10.1213C17.4995 10.3497 17.5242 10.601 17.476 10.8435C17.4278 11.0859 17.3087 11.3087 17.1339 11.4835C16.9591 11.6583 16.7363 11.7774 16.4939 11.8256C16.2514 11.8738 16.0001 11.8491 15.7716 11.7545C15.5432 11.6599 15.348 11.4996 15.2107 11.2941C15.0733 11.0885 15 10.8468 15 10.5996C15 10.2681 15.1317 9.95015 15.3661 9.71573C15.6005 9.48131 15.9185 9.34961 16.25 9.34961M21.3875 14.1746C22.1188 13.1259 22.5109 11.8781 22.5109 10.5996C22.5109 9.32109 22.1188 8.07332 21.3875 7.02461C21.747 6.90888 22.1223 6.84984 22.5 6.84961C23.4946 6.84961 24.4484 7.2447 25.1517 7.94796C25.8549 8.65122 26.25 9.60505 26.25 10.5996C26.25 11.5942 25.8549 12.548 25.1517 13.2513C24.4484 13.9545 23.4946 14.3496 22.5 14.3496C22.1223 14.3494 21.747 14.2903 21.3875 14.1746M16.25 16.8496C8.75 16.8496 8.75 21.8496 8.75 21.8496V24.3496H23.75V21.8496C23.75 21.8496 23.75 16.8496 16.25 16.8496ZM11.25 21.8496C11.25 21.4871 11.65 19.3496 16.25 19.3496C20.625 19.3496 21.175 21.2996 21.25 21.8496M30 21.8496V24.3496H26.25V21.8496C26.2208 20.9204 26.0068 20.0063 25.6205 19.1608C25.2342 18.3152 24.6833 17.555 24 16.9246C30 17.5371 30 21.8496 30 21.8496ZM10 15.5996H6.25V19.3496H3.75V15.5996H0V13.0996H3.75V9.34961H6.25V13.0996H10V15.5996Z" fill="#23273E"/>
</svg>
