<svg width="101" height="116" viewBox="0 0 101 116" fill="none" xmlns="http://www.w3.org/2000/svg">
<path d="M23.9549 83.848L23.6099 83.7161H23.2406C20.1064 83.7161 16.6063 82.0058 12.742 79.6958C11.9592 79.2279 11.1225 78.7114 10.2792 78.1909C9.19343 77.5208 8.09672 76.844 7.08977 76.2549C5.70319 75.4438 4.28918 74.6772 2.88568 74.0797C3.10962 74.0445 3.34817 74.0111 3.60631 73.9749L3.61862 73.9732L3.62351 73.9725C4.04214 73.9139 4.53317 73.8452 4.98131 73.7501C5.39848 73.6615 5.98597 73.5107 6.50718 73.1968C7.08829 72.8468 7.83128 72.1209 7.83132 70.9447L7.83135 69.7915L7.28386 69.4746C7.36597 69.3552 7.44715 69.2314 7.52732 69.1031C7.52204 69.1115 7.5193 69.1159 7.51996 69.1165C7.52517 69.1212 7.74213 68.8908 8.59305 68.5766C9.455 68.2584 10.6505 67.9657 12.1627 67.6862C14.3915 67.2743 17.0812 66.929 20.0521 66.5477C21.1254 66.4099 22.2353 66.2674 23.3735 66.1154C27.605 65.5501 32.1546 64.8603 36.2981 63.8015C40.4065 62.7516 44.3241 61.2897 47.1597 59.0657C52.193 55.118 57.2465 50.5821 59.4263 43.9947C61.6194 37.367 60.7733 29.1222 55.1953 18.0116C54.2437 14.2321 54.3287 11.9313 54.8244 10.345C55.3221 8.75238 56.316 7.59691 57.8279 6.211C58.4305 5.65861 58.968 5.12651 59.4298 4.66943C59.5973 4.50356 59.7549 4.34757 59.902 4.20407C60.4822 3.638 60.9272 3.23739 61.3765 2.92871C62.1609 2.38985 63.1399 2 65.2508 2C67.6786 2 69.4301 2.35048 70.7849 2.89894C72.1272 3.44236 73.1816 4.22106 74.1694 5.22311C75.1618 6.22991 76.05 7.41939 77.1228 8.85605L77.2131 8.97691C78.3026 10.4358 79.546 12.087 81.141 13.7644C83.287 16.0214 86.2801 16.2862 88.8322 16.0609C90.7934 15.8878 92.8961 15.3777 94.6617 14.9494C95.1811 14.8234 95.6713 14.7045 96.1202 14.6033C97.1791 14.3646 97.9978 14.2219 98.6102 14.2024C98.7813 14.1969 98.9086 14.2022 99.0008 14.2107C99.0004 14.2785 98.9965 14.3643 98.9859 14.4709C98.9199 15.1404 98.6229 16.2365 97.8975 17.929C97.257 19.4235 95.805 20.5307 93.4154 21.3864C91.0231 22.243 88.0862 22.7099 84.9633 23.1864C84.8577 23.2026 84.7519 23.2187 84.6457 23.2349C81.7255 23.6798 78.6198 24.153 76.1114 25.0508C73.5162 25.9797 70.9702 27.5758 70.2297 30.6454C69.2827 34.5713 70.4173 38.0287 72.3016 41.0938C73.9343 43.7497 76.251 46.296 78.4684 48.7332C78.7506 49.0434 79.0312 49.3518 79.3086 49.6584C84.442 55.3334 88.5942 60.584 86.9725 67.5922C85.4549 74.1502 82.9674 78.5241 80.0132 81.4641C77.0622 84.4007 73.5152 86.0363 69.6563 86.9016C65.7711 87.7729 61.6144 87.8534 57.5048 87.6966C55.9188 87.6361 54.2878 87.5356 52.6852 87.4369C50.2861 87.2891 47.9507 87.1452 45.9254 87.1452C42.3538 87.1452 32.5387 87.1301 23.9549 83.848ZM1.98593 73.5269C1.98814 73.5277 1.99541 73.5455 2.00113 73.5776C1.98657 73.5421 1.98371 73.5261 1.98593 73.5269ZM98.9799 13.9897C98.9804 13.9891 98.983 13.9955 98.9862 14.0103C98.981 13.9976 98.9794 13.9902 98.9799 13.9897Z" stroke="#FFDFD0" stroke-width="4"/>
<path d="M70.1648 13.7164H70.473" stroke="#FFDFD0" stroke-width="7" stroke-linecap="round"/>
<path d="M46.4248 87.0463C46.4248 87.0463 42.7116 101.709 43.2597 103.664C44.9603 109.731 62.5152 108.676 66.2082 106.857C68.2455 105.854 68.6767 104.047 69.1096 101.818C70.4264 95.0358 52.4916 95.7509 52.4916 95.7509" stroke="#FFDFD0" stroke-width="4"/>
</svg>
