<svg width="101" height="116" viewBox="0 0 101 116" fill="none" xmlns="http://www.w3.org/2000/svg">
<path d="M5.43299 68.1329C5.47963 68.0845 5.53629 68.034 5.59985 67.9842C5.81638 67.9774 6.09285 67.9681 6.42384 67.9554C7.30107 67.9219 8.56197 67.8653 10.1051 67.7726C13.1889 67.5873 17.4112 67.2574 21.9568 66.6781C26.4954 66.0996 31.3967 65.2675 35.825 64.0685C40.2048 62.8825 44.3315 61.284 47.1598 59.0657C52.1931 55.118 57.2465 50.5821 59.4263 43.9947C61.6196 37.3668 60.7733 29.1216 55.1948 18.0104C54.2005 14.1056 53.9239 11.5085 54.1615 9.63116C54.3867 7.8508 55.0835 6.63657 56.3514 5.47431C57.8588 4.09255 59.0129 3.27217 60.2602 2.7642C61.5016 2.25862 62.9913 2 65.2509 2C67.6787 2 69.4303 2.35048 70.785 2.89894C72.1273 3.44236 73.1818 4.22106 74.1695 5.22311C75.1618 6.22986 76.05 7.41926 77.1227 8.85582L77.2132 8.97691C78.3027 10.4358 79.5461 12.087 81.1411 13.7644C83.2149 15.9453 85.8272 16.3598 88.2204 16.1023C90.494 15.8577 92.8169 14.9825 94.6752 14.2823L94.7577 14.2512C95.7393 13.8814 96.5835 13.5637 97.334 13.3398C98.1065 13.1094 98.5954 13.0376 98.8823 13.0502C98.8868 13.0504 98.8912 13.0506 98.8954 13.0509C98.9381 13.1856 99 13.4711 99 14C99 17.6406 97.6309 19.7067 95.6414 21.0802C93.4928 22.5636 90.4686 23.3396 87.0259 23.8845C85.7618 24.0845 84.4997 24.246 83.2361 24.4076C82.7958 24.4639 82.3553 24.5203 81.9144 24.5783C80.2409 24.7986 78.5701 25.0421 77.0662 25.3953C74.2636 26.0536 71.0328 27.3166 70.2298 30.6454C69.2828 34.5713 70.4175 38.0287 72.3017 41.0938C73.9345 43.7497 76.2511 46.296 78.4685 48.7332C78.7508 49.0434 79.0314 49.3518 79.3088 49.6584C84.4422 55.3334 88.5943 60.584 86.9726 67.5922C85.455 74.1502 82.9675 78.5241 80.0133 81.4641C77.0624 84.4007 73.5154 86.0363 69.6564 86.9016C65.7712 87.7729 61.6145 87.8534 57.5048 87.6966C55.9189 87.6361 54.2879 87.5356 52.6853 87.4369C50.2862 87.2891 47.9508 87.1452 45.9255 87.1452C42.5489 87.1452 32.8399 85.9536 23.2968 84.5221C22.9747 84.4738 22.6524 84.4256 22.33 84.3774C17.6 83.67 12.867 82.9621 9.0118 81.9416C6.95618 81.3975 5.25379 80.7898 3.98502 80.1014C2.9684 79.5499 2.36708 79.0206 2.03835 78.554C2.07832 78.3481 2.1426 78.2197 2.19714 78.1365C2.29103 77.9931 2.45445 77.8356 2.76527 77.6754C3.45705 77.3188 4.38678 77.167 5.588 76.9708C5.63802 76.9626 5.6885 76.9544 5.73945 76.9461C6.2885 76.8562 6.97345 76.7401 7.56397 76.5381C8.08194 76.361 9.10465 75.9332 9.57399 74.8298C10.0707 73.6623 9.61734 72.5639 9.21761 71.887C8.78771 71.159 8.10606 70.3761 7.23346 69.5183L7.05276 69.3407L6.83348 69.2138C5.95363 68.7044 5.5797 68.3253 5.43299 68.1329Z" stroke="#FFDFD0" stroke-width="4"/>
<path d="M70.165 13.7164H70.4732" stroke="#FFDFD0" stroke-width="7" stroke-linecap="round"/>
<path d="M46.4248 87.0463C46.4248 87.0463 42.7116 101.709 43.2597 103.664C44.9603 109.731 62.5152 108.676 66.2082 106.857C68.2455 105.854 68.6767 104.047 69.1096 101.818C70.4264 95.0358 52.4916 95.7509 52.4916 95.7509" stroke="#FFDFD0" stroke-width="4"/>
</svg>
