<svg width="31" height="31" viewBox="0 0 31 31" fill="none" xmlns="http://www.w3.org/2000/svg">
<path d="M24.4609 4.05432H6.96094C5.57344 4.05432 4.46094 5.16682 4.46094 6.55432V11.5543H6.96094V6.55432H24.4609V24.0543H6.96094V19.0543H4.46094V24.0543C4.46094 24.7174 4.72433 25.3532 5.19317 25.8221C5.66201 26.2909 6.2979 26.5543 6.96094 26.5543H24.4609C25.124 26.5543 25.7599 26.2909 26.2287 25.8221C26.6975 25.3532 26.9609 24.7174 26.9609 24.0543V6.55432C26.9609 5.16682 25.8359 4.05432 24.4609 4.05432ZM13.3109 19.7793L15.0859 21.5543L21.3359 15.3043L15.0859 9.05432L13.3109 10.8168L16.5484 14.0543H4.46094V16.5543H16.5484L13.3109 19.7793Z" fill="#23273E"/>
</svg>
