<svg width="31" height="31" viewBox="0 0 31 31" fill="none" xmlns="http://www.w3.org/2000/svg">
<path d="M12.4746 4.44804C14.6295 4.44804 16.6961 5.30407 18.2199 6.8278C19.7436 8.35153 20.5996 10.4182 20.5996 12.573C20.5996 14.5855 19.8621 16.4355 18.6496 17.8605L18.9871 18.198H19.9746L26.2246 24.448L24.3496 26.323L18.0996 20.073V19.0855L17.7621 18.748C16.3371 19.9605 14.4871 20.698 12.4746 20.698C10.3197 20.698 8.2531 19.842 6.72937 18.3183C5.20563 16.7946 4.34961 14.7279 4.34961 12.573C4.34961 10.4182 5.20563 8.35153 6.72937 6.8278C8.2531 5.30407 10.3197 4.44804 12.4746 4.44804ZM12.4746 6.94804C9.34961 6.94804 6.84961 9.44804 6.84961 12.573C6.84961 15.698 9.34961 18.198 12.4746 18.198C15.5996 18.198 18.0996 15.698 18.0996 12.573C18.0996 9.44804 15.5996 6.94804 12.4746 6.94804Z" fill="#23273E"/>
</svg>
