<svg width="31" height="31" viewBox="0 0 31 31" fill="none" xmlns="http://www.w3.org/2000/svg">
<path d="M22.0824 21.899L21.0824 20.199L22.9074 14.7365L24.6699 14.149L25.9199 15.0865C25.9199 15.124 25.9199 15.1865 25.9199 15.2615C25.9199 15.349 25.9574 15.424 25.9574 15.499C25.9574 17.9615 25.1324 20.1365 23.4949 22.0115L22.0824 21.899ZM13.1074 19.249L11.3949 14.2115L15.9199 11.0365L20.4449 14.2115L18.7324 19.249H13.1074ZM15.9199 25.5365C14.8199 25.5365 13.7824 25.3615 12.7949 25.0115L11.9324 23.124L12.7574 21.749H19.1449L19.9074 23.124L19.0449 25.0115C18.0574 25.3615 17.0199 25.5365 15.9199 25.5365ZM8.34492 22.0115C7.68242 21.2365 7.10742 20.199 6.61992 18.9365C6.13242 17.6615 5.88242 16.5115 5.88242 15.499C5.88242 15.424 5.91992 15.349 5.91992 15.2615C5.91992 15.1865 5.91992 15.124 5.91992 15.0865L7.16992 14.149L8.93242 14.7365L10.7574 20.199L9.75742 21.899L8.34492 22.0115ZM14.6699 7.11152V8.86152L9.66992 12.324L7.99492 11.799L7.46992 10.099C8.01992 9.24902 8.83242 8.39902 9.90742 7.57402C10.9824 6.74902 12.0074 6.21152 12.9824 5.93652L14.6699 7.11152ZM18.8574 5.93652C19.8324 6.21152 20.8574 6.74902 21.9324 7.57402C23.0074 8.39902 23.8199 9.24902 24.3699 10.099L23.8449 11.799L22.1699 12.3365L17.1699 8.87402V7.11152L18.8574 5.93652ZM7.08242 6.66152C4.66992 9.11152 3.41992 12.0615 3.41992 15.499C3.41992 18.9365 4.66992 21.8865 7.08242 24.3365C9.49492 26.7865 12.4824 27.999 15.9199 27.999C19.3574 27.999 22.3074 26.749 24.7574 24.3365C27.2074 21.924 28.4199 18.9365 28.4199 15.499C28.4199 12.0615 27.1699 9.11152 24.7574 6.66152C22.3449 4.21152 19.3574 2.99902 15.9199 2.99902C12.4824 2.99902 9.53242 4.24902 7.08242 6.66152Z" fill="#23273E"/>
</svg>
