<svg width="26" height="26" viewBox="0 0 26 26" fill="none" xmlns="http://www.w3.org/2000/svg">
<path d="M0.666504 0.5V3H6.9165V8H0.666504V10.5H6.9165C8.304 10.5 9.4165 9.3875 9.4165 8V6.75H15.6665V19.25H9.4165V18C9.4165 16.6125 8.304 15.5 6.9165 15.5H0.666504V18H6.9165V23H0.666504V25.5H6.9165C8.304 25.5 9.4165 24.3875 9.4165 23V21.75H15.6665C17.054 21.75 18.1665 20.6375 18.1665 19.25V14.25H25.6665V11.75H18.1665V6.75C18.1665 5.3625 17.054 4.25 15.6665 4.25H9.4165V3C9.4165 1.6125 8.304 0.5 6.9165 0.5H0.666504Z" fill="#23273E"/>
</svg>
