<svg width="35" height="31" viewBox="0 0 35 31" fill="none" xmlns="http://www.w3.org/2000/svg">
<path d="M4.875 7.58203H7.74278H30.6851" stroke="#23273E" stroke-width="2" stroke-linecap="round" stroke-linejoin="round"/>
<path d="M27.8172 7.58203V25.082C27.8172 25.7451 27.515 26.381 26.9772 26.8498C26.4394 27.3186 25.71 27.582 24.9494 27.582H10.6105C9.84988 27.582 9.12044 27.3186 8.58263 26.8498C8.04482 26.381 7.74268 25.7451 7.74268 25.082V7.58203M12.0444 7.58203V5.08203C12.0444 4.41899 12.3465 3.78311 12.8843 3.31426C13.4221 2.84542 14.1516 2.58203 14.9121 2.58203H20.6477C21.4083 2.58203 22.1377 2.84542 22.6755 3.31426C23.2133 3.78311 23.5155 4.41899 23.5155 5.08203V7.58203" stroke="#23273E" stroke-width="2" stroke-linecap="round" stroke-linejoin="round"/>
<path d="M14.9121 13.832V21.332" stroke="#23273E" stroke-width="2" stroke-linecap="round" stroke-linejoin="round"/>
<path d="M20.6479 13.832V21.332" stroke="#23273E" stroke-width="2" stroke-linecap="round" stroke-linejoin="round"/>
</svg>
