<svg width="60" height="60" viewBox="0 0 60 60" fill="none" xmlns="http://www.w3.org/2000/svg">
<circle cx="30" cy="30" r="28.5" stroke="#FFDFD0" stroke-width="3"/>
<path d="M42.3258 41.5846V38.6578C42.3258 37.1053 41.709 35.6164 40.6113 34.5186C39.5135 33.4209 38.0246 32.8041 36.4721 32.8041H24.7648C23.2123 32.8041 21.7234 33.4209 20.6256 34.5186C19.5279 35.6164 18.9111 37.1053 18.9111 38.6578V41.5846" stroke="#FFDFD0" stroke-width="2" stroke-linecap="round" stroke-linejoin="round"/>
<path d="M30.6188 26.9505C33.8517 26.9505 36.4725 24.3297 36.4725 21.0968C36.4725 17.8639 33.8517 15.2432 30.6188 15.2432C27.3859 15.2432 24.7651 17.8639 24.7651 21.0968C24.7651 24.3297 27.3859 26.9505 30.6188 26.9505Z" stroke="#FFDFD0" stroke-width="2" stroke-linecap="round" stroke-linejoin="round"/>
</svg>
